# File created by Blade
# Date/Time:  Wed Jan 21 18:02:19 2015
# Frame Rate: 120.000 fps
#------------------------------------------------------
:FULLY-SPECIFIED
:DEGREES
386
root 22.347944 35.730273 -22.105676 -176.941410 -1.228795 -179.376413
Spine -7.457445 0.381065 -0.445279
Head 1.799458 -5.633013 -0.122884
LeftShoulder -6.949793 -19.861602 -4.727955
LeftArm -5.586304 17.312636 -72.332580
LeftForeArm -0.292034 -0.000000 14.145079
LeftHand -1.171250 0.000000 3.723668
LeftHandThumb1 -26.253704 0.000000 33.147579
RightShoulder -8.349261 -15.065796 9.605560
RightArm 15.831539 -15.443887 66.000629
RightForeArm -19.050785 -0.000000 17.894269
RightHand -0.523419 -0.000000 2.719643
RightHandThumb1 -24.326973 -0.000000 -32.862282
LeftUpLeg -5.607128 2.882298 -2.124420
LeftLeg 16.952910 -0.000000 -0.000000
LeftFoot -24.320485 22.437021 -10.823423
LeftToeBase 20.251381 -0.000000 -0.000000
RightUpLeg -6.831686 -7.224493 4.606332
RightLeg 6.386361 -0.000000 -0.000000
RightFoot -21.728504 -19.651602 17.023845
RightToeBase 25.837946 -0.000000 -0.000000
387
root 22.253100 35.729459 -22.061697 -177.077205 -1.234608 -179.548814
Spine -7.200729 0.247943 -0.560327
Head 1.697418 -5.552836 -0.142871
LeftShoulder -6.893251 -19.867776 -4.893018
LeftArm -5.415472 17.622191 -72.391260
LeftForeArm -0.420431 -0.000000 13.870126
LeftHand -1.124673 -0.000000 3.676785
LeftHandThumb1 -26.253704 0.000000 33.147579
RightShoulder -8.317658 -15.015800 9.686614
RightArm 15.815862 -15.345469 65.947435
RightForeArm -19.207996 0.000000 18.032033
RightHand -0.751467 -0.000000 2.668703
RightHandThumb1 -24.326973 -0.000000 -32.862282
LeftUpLeg -4.844956 2.235311 -2.448527
LeftLeg 15.547589 -0.000000 -0.000000
LeftFoot -24.042153 22.925723 -10.787186
LeftToeBase 19.968398 -0.000000 -0.000000
RightUpLeg -7.003191 -7.199357 4.274002
RightLeg 6.842801 -0.000000 -0.000000
RightFoot -21.796723 -19.676049 16.931196
RightToeBase 25.878544 -0.000000 -0.000000
388
root 22.170346 35.725223 -22.019019 -177.289051 -1.232383 -179.598360
Spine -6.850389 0.180294 -0.552786
Head 1.574976 -5.602079 -0.160706
LeftShoulder -6.735345 -19.903982 -5.056772
LeftArm -5.299186 17.879068 -72.484994
LeftForeArm -0.562787 -0.000000 13.593612
LeftHand -1.060135 -0.000000 3.499043
LeftHandThumb1 -26.253704 0.000000 33.147579
RightShoulder -8.300647 -14.973006 9.747469
RightArm 15.821239 -15.246729 65.899834
RightForeArm -19.419793 -0.000000 18.183168
RightHand -0.653380 -0.000000 2.696014
RightHandThumb1 -24.326973 -0.000000 -32.862282
LeftUpLeg -4.266338 2.225358 -2.620941
LeftLeg 14.626183 -0.000000 -0.000000
LeftFoot -23.908187 23.056079 -10.796047
LeftToeBase 20.271254 -0.000000 -0.000000
RightUpLeg -7.096549 -7.126663 4.075529
RightLeg 7.294299 -0.000000 -0.000000
RightFoot -21.852518 -19.730816 16.914122
RightToeBase 25.905577 -0.000000 -0.000000
389
root 22.084306 35.719822 -21.968856 -177.394669 -1.322226 -179.631477
Spine -6.606869 -0.008076 -0.508188
Head 1.424171 -5.572069 -0.224790
LeftShoulder -6.649913 -19.966202 -5.182840
LeftArm -5.239732 18.195546 -72.633200
LeftForeArm -0.797410 -0.000000 13.349401
LeftHand -1.108669 -0.000000 3.342172
LeftHandThumb1 -26.253704 0.000000 33.147579
RightShoulder -8.294421 -14.921809 9.784242
RightArm 15.855201 -15.243575 65.826453
RightForeArm -19.231695 -0.000000 18.309602
RightHand -0.635290 -0.000000 2.607507
RightHandThumb1 -24.326973 -0.000000 -32.862282
LeftUpLeg -3.854432 2.242238 -2.787481
LeftLeg 13.826673 -0.000000 -0.000000
LeftFoot -23.773870 23.032781 -10.684345
LeftToeBase 20.548329 -0.000000 -0.000000
RightUpLeg -7.308615 -7.164853 3.907545
RightLeg 7.745208 -0.000000 -0.000000
RightFoot -21.924450 -19.826924 16.739775
RightToeBase 26.243005 -0.000000 -0.000000
390
root 21.991710 35.714688 -21.924508 -177.592971 -1.341531 -179.682278
Spine -6.256623 -0.166448 -0.472221
Head 1.287252 -5.506709 -0.225916
LeftShoulder -6.571661 -20.048947 -5.296927
LeftArm -5.181660 18.382969 -72.811140
LeftForeArm -0.841696 -0.000000 12.990739
LeftHand -1.040552 -0.000000 3.269273
LeftHandThumb1 -26.253704 0.000000 33.147579
RightShoulder -8.221625 -14.945916 9.819113
RightArm 15.972672 -15.155334 65.710824
RightForeArm -19.408687 0.000000 18.417573
RightHand -0.763781 -0.000000 2.909866
RightHandThumb1 -24.326973 -0.000000 -32.862282
LeftUpLeg -3.347934 2.446723 -2.991579
LeftLeg 13.088650 -0.000000 -0.000000
LeftFoot -23.649249 23.010388 -10.595544
LeftToeBase 20.532225 -0.000000 -0.000000
RightUpLeg -7.414405 -7.161317 3.701732
RightLeg 8.183554 -0.000000 -0.000000
RightFoot -21.966247 -19.837685 16.748546
RightToeBase 26.182040 -0.000000 -0.000000
391
root 21.899633 35.708269 -21.868287 -177.633972 -1.292903 -179.713916
Spine -6.092104 -0.250361 -0.413767
Head 1.162470 -5.462597 -0.273886
LeftShoulder -6.488141 -20.107366 -5.378109
LeftArm -5.204659 18.538146 -73.022882
LeftForeArm -0.853794 0.000000 12.730138
LeftHand -1.020978 -0.000000 3.057216
LeftHandThumb1 -26.253704 0.000000 33.147579
RightShoulder -8.176213 -14.867784 9.801992
RightArm 15.958338 -15.158691 65.660976
RightForeArm -19.492518 -0.000000 18.547075
RightHand -0.715249 -0.000000 2.968692
RightHandThumb1 -24.326973 -0.000000 -32.862282
LeftUpLeg -2.992556 2.598794 -3.184426
LeftLeg 12.348621 -0.000000 -0.000000
LeftFoot -23.606549 22.991898 -10.686473
LeftToeBase 20.441399 -0.000000 -0.000000
RightUpLeg -7.720209 -6.945725 3.527618
RightLeg 8.665984 -0.000000 -0.000000
RightFoot -22.013413 -19.987778 16.724416
RightToeBase 26.123846 -0.000000 -0.000000
